<?xml version="1.0" encoding="UTF-8"?>
<svg id="Layer_1" data-name="Layer 1" xmlns="http://www.w3.org/2000/svg" viewBox="0 0 30 30">
  <g id="Line">
    <path d="M14.99,5.71c-5.13,0-9.3,4.17-9.3,9.3s4.17,9.3,9.3,9.3,9.3-4.17,9.3-9.3-4.17-9.3-9.3-9.3ZM14.99,22.98c-4.4,0-7.97-3.58-7.97-7.97s3.58-7.97,7.97-7.97,7.97,3.58,7.97,7.97-3.58,7.97-7.97,7.97Z"/>
    <path d="M18.51,11.88l-4.84,4.84-2.19-2.19c-.26-.26-.68-.26-.94,0s-.26.68,0,.94l2.66,2.66c.13.13.3.19.47.19s.34-.07.47-.19l5.31-5.31c.26-.26.26-.68,0-.94s-.68-.26-.94,0h0Z"/>
    <path d="M28.19,12.84c-.27-.2-.36-.6-.18-.89.65-1.03,1.59-3.2-1.65-4-.33-.08-.58-.42-.51-.76.31-1.46-.12-3.57-3.06-3.06-.33.06-.69-.17-.76-.51-.22-1.12-1.17-3.38-3.99-1.65-.29.18-.75.08-.89-.18-.44-.83-2.36-2.74-4.32,0-.2.28-.65.35-.89.18-1.29-.92-3.37-1.15-4,1.65-.07.32-.42.57-.76.5-1.13-.21-3.59-.14-3.06,3.06.06.34-.17.71-.5.76-1.31.2-3.33,1.25-1.66,3.99.18.29.13.74-.18.89-1.16.59-2.49,2.68,0,4.33.28.19.35.59.18.88-1.68,2.75.34,3.8,1.66,3.99.34.05.56.42.5.76-.54,3.2,1.93,3.27,3.06,3.06.34-.07.68.18.76.5.63,2.81,2.71,2.58,4,1.65.24-.17.69-.1.89.18,1.96,2.74,3.89.83,4.32,0,.14-.26.6-.36.89-.18,2.83,1.73,3.77-.54,3.99-1.65.07-.33.42-.56.76-.51,2.93.52,3.37-1.6,3.06-3.06-.07-.33.17-.67.51-.76,3.25-.8,2.3-2.96,1.65-4-.18-.29-.1-.7.18-.89.87-.6,2.74-2.28,0-4.31h0ZM27.24,19.46c.23.36.09.86-.43,1.03-.94.31-2.68.57-2.21,3.32.09.52-.19.84-.79.79-.91-.07-2.79-.44-3.31,2.22-.1.52-.62.64-1.03.43-1.79-.9-2.5-1.02-3.91.78-.27.34-.83.33-1.12,0-.76-.86-1.61-2.19-3.91-.78-.4.25-.86.06-1.03-.43-.46-1.26-.59-2.6-3.32-2.21-.42.06-.86-.22-.79-.79.14-1.08.31-2.82-2.22-3.32-.39-.08-.69-.6-.43-1.03,1.01-1.65.87-2.68-.79-3.92-.19-.14-.49-.74.01-1.1,1.62-1.16,1.79-2.26.78-3.91-.27-.44.04-.96.43-1.03,2.52-.5,2.36-2.23,2.22-3.32-.08-.57.37-.85.79-.79,2.72.39,2.86-.96,3.32-2.21.18-.48.63-.67,1.03-.43,2.3,1.41,3.16.08,3.91-.78.29-.33.85-.34,1.12,0,1.41,1.8,2.12,1.68,3.91.78.41-.21.93-.1,1.03.43.53,2.65,2.4,2.28,3.31,2.22.6-.05.88.27.79.79-.46,2.75,1.27,3.01,2.21,3.32.51.17.65.67.43,1.03-1.48,2.37.08,3.32.78,3.91.27.23.43.78.06,1.07-.83.57-2.32,1.58-.84,3.95h0Z"/>
  </g>
</svg>