<?xml version="1.0" encoding="UTF-8"?>
<svg id="Layer_1" data-name="Layer 1" xmlns="http://www.w3.org/2000/svg" viewBox="0 0 30 30">
  <defs>
    <style>
      .cls-1 {
        stroke-miterlimit: 10;
      }

      .cls-1, .cls-2 {
        fill: none;
        stroke: #000;
        stroke-linecap: round;
        stroke-width: 1.15px;
      }

      .cls-2 {
        stroke-linejoin: round;
      }
    </style>
  </defs>
  <g id="Layer_1-2" data-name="Layer 1">
    <path class="cls-2" d="M23.63,20.05c.1-.28.17-.58.21-.88h0c.12-.55.2-1.11.24-1.67.2.07.41.1.62.09,1.08.03,2.04-.64,2.4-1.66.5-1.32-.17-2.8-1.5-3.29-.29-.11-.59-.16-.9-.16-.29,0-.58.05-.84.16-.19-1.14-.44-2.27-.76-3.38-.17-.45-.37-.89-.61-1.31-1.01-1.88-2.68-3.31-4.69-4.01h-.09c-1.26-.39-2.57-.59-3.89-.59-1.31,0-2.62.2-3.87.59-2.19.72-4,2.29-5.05,4.34-.15.32-.3.65-.43.98-.24,1.07-.4,2.16-.5,3.25-.25-.08-.52-.13-.78-.13-1.41-.01-2.57,1.12-2.58,2.53s1.12,2.57,2.53,2.58c.21,0,.41-.02.62-.07.05,1,.23,1.98.54,2.93.11.32.26.62.46.9,2.17,2.71,5.48,4.24,8.95,4.14h1.15c.38,0,.77-.01,1.15-.06"/>
    <path class="cls-2" d="M16.53.63c1.34.92,1.69,2.76.77,4.1-.86,1.26-2.54,1.65-3.87.91-.39-.25-.72-.59-.96-.99"/>
    <ellipse cx="9.27" cy="14.45" rx="1.15" ry="1.73" transform="translate(-.65 .44) rotate(-2.62)"/>
    <ellipse cx="18.49" cy="14.45" rx="1.15" ry="1.73"/>
    <path class="cls-1" d="M15.54,19.32c-.5.87-1.61,1.17-2.49.67-.28-.16-.51-.39-.67-.67"/>
    <path class="cls-2" d="M28.67,24.69l-.71-.89-.45,1.24c-.98.29-1.38.48-2.93.93l-1.27-1.34-.07,1.64c-.1,0-.54.09-.67.13-.8.23-1.58.56-2.3.97l-1.43-.83.2,1.47c-1.52.85-2.57,1.05-3.06-.38-.04-.1-.06-.21-.08-.32,0-.03,0-.07,0-.1h0c-.12-.61-.08-1.24.13-1.82v-.07c.03-.1.07-.2.12-.3.72-1.48,1.87-2.72,3.3-3.55h0l1.15,1.31h0v-.08l-.12-1.66v-.28c.23-.12.47-.23.71-.31.77-.29,1.58-.44,2.4-.45h.92l.67,1.87.54-1.62c1.52.27,2.81,1.28,3.46,2.68.38.51.27,1.23-.24,1.61-.08.06-.16.1-.25.14Z"/>
    <path class="cls-2" d="M15.69,27.52c-.59.49-1.05,1.13-1.34,1.84"/>
    <path class="cls-2" d="M15.69,27.51c3.13-2.85,10.29-4.68,10.29-4.68"/>
  </g>
</svg>