<?xml version="1.0" encoding="UTF-8"?>
<svg id="Layer_1" data-name="Layer 1" xmlns="http://www.w3.org/2000/svg" viewBox="0 0 30 30">
  <defs>
    <style>
      .cls-1 {
        fill-rule: evenodd;
      }
    </style>
  </defs>
  <g id="Layer_1-2" data-name="Layer_1">
    <g id="_231562408" data-name=" 231562408">
      <g>
        <g id="_231561544" data-name=" 231561544">
          <path class="cls-1" d="M18.87,14.83c-2.78,0-5.1-2.9-5.39-6.72-.29-2.95.12-4.06.17-4.23.93-2.2,3.13-3.71,5.56-3.71,1.56,0,2.95.64,3.88,1.74.87.98,1.74,2.9,1.22,6.14-.06.52-.12,1.04-.23,1.51-.06.17-.17.29-.29.29-1.33.46-2.2,1.85-2.2,3.48v.29c0,.17-.06.29-.17.35-.75.58-1.68.87-2.55.87ZM14.41,4.22c0,.06-.41,1.04-.12,3.82.12,1.62.7,3.19,1.56,4.29.81,1.1,1.91,1.68,3.01,1.68.7,0,1.27-.17,1.91-.58v-.12c0-1.85,1.04-3.53,2.55-4.11.06-.41.12-.87.17-1.27.41-2.38.06-4.23-1.04-5.5-.75-.93-1.97-1.45-3.24-1.45-2.14,0-4.06,1.27-4.81,3.19v.06Z"/>
        </g>
        <g id="_231561592" data-name=" 231561592">
          <path class="cls-1" d="M15.1,8.45h-1.22c-.23,0-.41-.17-.41-.41s.17-.41.41-.41h.81c0-.98.46-1.8,1.27-2.43.75-.58,1.74-.98,2.72-1.33,1.8-.7,2.9-1.16,2.78-2.49-.06-.17.12-.41.35-.41.23-.06.41.12.46.35.06.93-.23,1.62-.98,2.2-.64.46-1.45.75-2.32,1.1-1.85.7-3.59,1.33-3.48,3.42,0,.12-.06.17-.12.29-.12.06-.17.12-.29.12Z"/>
        </g>
        <g id="_231561688" data-name=" 231561688">
          <path class="cls-1" d="M23.91,8.51h-1.16c-.12,0-.23-.06-.29-.12-.12-.06-.12-.17-.12-.29.12-1.8-1.33-4.11-1.68-4.63-.12-.17-.12-.41.06-.58.23-.12.46-.06.58.12.41.52,1.8,2.78,1.85,4.69h.75c.23,0,.41.17.41.41s-.17.41-.41.41Z"/>
        </g>
        <g id="_231561304" data-name=" 231561304">
          <path class="cls-1" d="M20.43,29.83c-1.1,0-2.26-.17-3.42-.52-.06,0-.17,0-.23.06-1.33.12-2.38.17-3.01.17h-.17c-1.68,0-3.48-1.45-3.88-3.07-.12-.64-.23-1.22-.41-1.85-.29-1.22-.58-2.49-.81-3.77-.29-1.51-.12-2.66.46-3.42.7-.87,1.68-.98,1.8-.98,3.53-.17,4.63-1.27,4.81-1.56v-1.74c0-.23.23-.41.41-.41.23,0,.41.17.41.41v2.03c-.12.17-1.04,1.85-5.56,2.09-.06,0-.75.06-1.22.64-.46.64-.58,1.56-.29,2.84.23,1.22.52,2.49.81,3.71.12.64.29,1.22.41,1.85.29,1.27,1.8,2.49,3.13,2.43h.06c.64,0,1.68-.06,2.95-.17.12,0,.17-.06.23-.06h.12c4.06-.52,8.92-2.09,9.21-6.78v-5.16c0-.12.06-.23.12-.29.12-.06.23-.12.35-.12,1.85.17,3.01,1.62,3.07,3.71,0,3.48-1.27,6.37-3.65,8.17-1.22.87-2.61,1.45-4.17,1.68-.46.06-.98.12-1.51.12ZM19.27,28.96c2.38.23,4.63-.29,6.31-1.62,2.2-1.62,3.36-4.29,3.36-7.47-.06-1.16-.52-2.43-1.91-2.78v4.69c-.23,3.65-2.9,6.08-7.76,7.18Z"/>
        </g>
        <g id="_231562144" data-name=" 231562144">
          <path class="cls-1" d="M18.17,26.64c-.64,0-1.22-.06-1.74-.17-1.16-.29-2.09-.81-2.72-1.62-.7-.87-1.04-2.09-.93-3.48,0-.23.17-.41.41-.41s.41.23.41.41c-.17,2.95,1.56,4,3.01,4.29.52.12,1.04.17,1.56.17,3.24,0,7.07-1.91,8.11-4.34.06-.23.29-.35.52-.23.17.06.29.35.23.52-.7,1.56-2.32,3.01-4.46,3.94-1.45.64-3.01.93-4.4.93Z"/>
        </g>
        <g id="_231561376" data-name=" 231561376">
          <path class="cls-1" d="M24.6,17.72c-2.14,0-3.82-1.97-3.82-4.4s1.68-4.4,3.82-4.4,3.88,1.97,3.88,4.4-1.74,4.4-3.88,4.4ZM24.6,9.73c-1.68,0-3.01,1.62-3.01,3.59s1.33,3.59,3.01,3.59,3.07-1.62,3.07-3.59-1.39-3.59-3.07-3.59Z"/>
        </g>
        <g id="_231562072" data-name=" 231562072">
          <path class="cls-1" d="M23.21,18.65c-.41,0-.81-.06-1.33-.23-.17-.12-.41-.17-.58-.23-1.68-.52-3.42-1.04-5.68-4.87-.12-.17,0-.41.17-.52s.46-.06.52.12c2.09,3.53,3.71,4.06,5.21,4.52.17.06.41.12.64.17.7.29,1.22.29,1.56.12.17-.06.29-.23.35-.46s.23-.35.46-.35c.23.06.35.29.29.52-.12.46-.35.81-.75,1.04-.23.12-.52.17-.87.17Z"/>
        </g>
        <g id="_231562240" data-name=" 231562240">
          <path class="cls-1" d="M19.45,26.59c-.17,0-.35-.12-.41-.29-.46-1.39-.29-2.9.52-4.4.35-.58.64-.98.93-1.33-.93-.29-1.85-.98-2.72-1.97-.87-.93-1.62-2.2-2.14-3.42-.06-.23,0-.46.23-.52.17-.12.46,0,.52.17.93,2.26,2.84,4.81,4.92,5.1.17,0,.29.12.35.29s0,.29-.12.41c0,.06-2.72,2.55-1.74,5.39.12.23,0,.46-.23.52q-.06.06-.12.06Z"/>
        </g>
        <g id="_231562504" data-name=" 231562504">
          <path class="cls-1" d="M13.66,16.85c-.12,0-.23-.06-.29-.17-.17-.12-.17-.41,0-.58.52-.46.81-3.19.93-4.92,0-.23.17-.41.41-.41s.41.23.41.41c0,.06-.06,1.16-.23,2.38-.29,2.32-.7,2.9-.93,3.19-.12.06-.17.12-.29.12Z"/>
        </g>
      </g>
    </g>
  </g>
  <g id="Layer_1-3" data-name="Layer_1">
    <g id="_231562408-2" data-name=" 231562408">
      <g>
        <g id="_231561544-2" data-name=" 231561544">
          <path class="cls-1" d="M5.9,4.57s0-.03,0-.03v-.05c.7-1.79,2.49-2.99,4.5-2.99,1.2,0,2.33.48,3.05,1.35.21.25.4.51.54.8.16-.29.33-.53.47-.71-.14-.22-.28-.42-.43-.57-.87-1.04-2.18-1.63-3.64-1.63-2.27,0-4.34,1.41-5.21,3.47-.05.17-.44,1.2-.16,3.96.15,1.98.88,3.7,1.95,4.83.24.26.49.47.76.67.7.5,1.49.79,2.33.79s1.69-.28,2.39-.82c.11-.05.16-.16.16-.33v-.27c0-1.13.44-2.13,1.19-2.75-.1-.38-.16-.63-.18-.79-1.07.71-1.77,2.07-1.77,3.54v.11c-.59.38-1.14.54-1.79.54-1.03,0-2.06-.54-2.82-1.57-.81-1.04-1.35-2.5-1.46-4.02-.14-1.33-.11-2.22-.04-2.79.05-.44.12-.68.14-.76Z"/>
        </g>
        <g id="_231561592-2" data-name=" 231561592">
          <path class="cls-1" d="M13.53,4.86c-.05.23-.09.47-.09.73-.07,0-.15.02-.23.02-.68,0-1.38-.23-2.16-.44-1.62-.47-3.13-.94-4.18.58-.06.08-.14.09-.24.14-.11-.02-.18,0-.26-.07l-.62-.48-.2-.15c-.15-.12-.18-.33-.05-.49.1-.13.26-.17.39-.12.04,0,.08.02.11.05l.54.43c.53-.69,1.29-1.02,2.18-1.04.82-.02,1.7.22,2.55.48.95.27,1.68.46,2.25.37Z"/>
        </g>
        <g id="_231561304-2" data-name=" 231561304">
          <path class="cls-1" d="M8.01,27.34c-1.19.1-2.17.16-2.76.16h-.05c-1.26.06-2.66-1.09-2.94-2.28-.11-.59-.28-1.14-.39-1.73-.27-1.14-.53-2.33-.76-3.47-.27-1.2-.15-2.07.29-2.67.43-.53,1.08-.59,1.14-.59,4.23-.21,5.09-1.79,5.2-1.95v-1.9c0-.22-.16-.39-.38-.39-.16,0-.39.17-.39.39v1.62c-.16.28-1.19,1.31-4.5,1.46-.11,0-1.04.12-1.68.93-.54.7-.71,1.79-.44,3.19.22,1.2.48,2.39.75,3.53.17.6.29,1.14.39,1.74.38,1.52,2.07,2.88,3.64,2.88h.16c.58,0,1.52-.06,2.73-.15v-.77h-.02Z"/>
        </g>
      </g>
    </g>
  </g>
  <path class="cls-1" d="M14.28,3.98c-.22.25-.47.39-.78.44.1-.45.28-.86.46-1.2.13.24.23.49.32.76Z"/>
  <polyline class="cls-1" points="8.01 27.34 10.26 26.99 10.5 27.75 8.03 28.12"/>
</svg>