<?xml version="1.0" encoding="UTF-8"?>
<svg id="Layer_1" data-name="Layer 1" xmlns="http://www.w3.org/2000/svg" viewBox="0 0 30 30">
  <path d="M5.4,29.05s-.08,0-.12-.01c-.2-.04-.37-.18-.45-.38L.34,17.17c-.09-.23-.04-.48.13-.65,1.41-1.43,3.67-2.19,6.54-2.19h.02c.34,0,.61.28.61.61s-.27.61-.61.61h-.02c-1.66,0-3.89.28-5.38,1.56l4.02,10.29c2.79-2.13,6.85-1.59,11.12-1.03,4.12.55,8.38,1.11,11.56-.8l-4.03-10.33c-.54.31-1.13.57-1.74.77-.32.11-.67-.07-.77-.39s.07-.67.39-.77c.76-.25,1.46-.59,2.08-1.02.15-.11.35-.14.53-.08.18.05.32.19.39.36l4.48,11.49c.1.26.01.57-.22.73-3.6,2.49-8.29,1.87-12.82,1.27-4.33-.57-8.42-1.11-10.78,1.28-.12.12-.27.18-.44.18h0Z"/>
  <path d="M8.48,20.45h0c-.34,0-.61-.28-.61-.62.03-3.34,1.02-6.64,2.85-9.54.1-.16.27-.26.46-.28.19-.02.38.05.51.19.75.81,1.11,2.08,1.23,2.5.09.33-.1.66-.42.75-.33.09-.66-.1-.75-.42-.14-.5-.29-.92-.46-1.26-1.4,2.51-2.15,5.28-2.17,8.08,0,.34-.28.61-.61.61h0Z"/>
  <path d="M11.68,22.76c-.32,0-.58-.24-.61-.56-.03-.34.22-.63.56-.66,2.56-.21,4.46-1.53,5.44-2.53-.35-.12-.69-.2-1.07-.25-.34-.04-.57-.35-.53-.68s.35-.57.68-.53c.78.1,1.44.3,2.19.68.16.08.28.23.32.4.04.17,0,.36-.1.5-.81,1.13-3.28,3.35-6.85,3.63-.02,0-.03,0-.05,0h0Z"/>
  <path d="M17.19,19.01c-.17,0-.35-.07-.47-.22-.22-.26-.19-.64.07-.86,1.39-1.17,2.69-2.72,3.66-4.36.62-1.04.93-1.83,1.07-2.3-.42.1-1,.35-1.46.71-.27.21-.65.16-.86-.11-.21-.27-.16-.65.11-.86.69-.53,2.14-1.25,3.09-.91.19.07.33.23.38.42.25.94-.87,2.96-1.21,3.56-.61,1.04-1.93,3.05-3.99,4.79-.11.1-.25.14-.39.14h0Z"/>
  <path d="M11.96,12.42s-.09,0-.13-.01c-.33-.07-.54-.4-.47-.73.5-2.32,1.07-3.79,1.83-4.77.75-.97,1.63-1.4,2.64-1.91,1.32-.66,2.95-1.47,5.18-3.85.15-.16.38-.23.59-.18s.38.22.44.43l.03.1c.8,2.86,1.56,5.56-.09,9.41-.13.31-.49.45-.8.32-.31-.13-.45-.49-.32-.8,1.32-3.07.94-5.29.3-7.68-2.02,1.96-3.59,2.75-4.78,3.34-1.91.95-2.86,1.43-3.83,5.85-.06.29-.32.48-.6.48h0Z"/>
  <path d="M6.36,24.77c-.2,0-.4-.1-.51-.28-.18-.28-.11-.66.18-.85,4.7-3.06,9.28-11.06,11.05-14.85.14-.31.51-.44.81-.3.31.14.44.51.3.81-.44.94-2.05,4.27-4.56,7.92-2.41,3.5-4.74,6.01-6.94,7.44-.1.07-.22.1-.33.1h0Z"/>
</svg>