<?xml version="1.0" encoding="UTF-8"?>
<svg id="Layer_1" data-name="Layer 1" xmlns="http://www.w3.org/2000/svg" viewBox="0 0 291.84 70">
  <defs>
    <style>
      .cls-1 {
        fill: #fcc;
      }

      .cls-2 {
        fill: #cafffe;
      }

      .cls-3 {
        fill: #0e1d28;
      }

      .cls-4 {
        fill: #fcb9b9;
      }
    </style>
  </defs>
  <g>
    <path class="cls-2" d="M27.39,14.21l-1.05.07c-.53.04-1.05-.14-1.45-.49-.4-.35-.64-.84-.67-1.37l-.07-1.05,1.05-.07c1.1-.07,2.05.77,2.12,1.87l.07,1.05Z"/>
    <path class="cls-3" d="M49.16,14.16c-.07,0-.13-.02-.19-.06-.41-.32-.83-.63-1.26-.92-.14-.1-.17-.29-.08-.43.1-.14.29-.17.43-.08.44.3.87.62,1.29.94.13.1.16.3.06.43-.06.08-.15.12-.24.12Z"/>
    <path class="cls-3" d="M30.9,67.88C14.21,67.88.63,54.3.63,37.61S14.21,7.33,30.9,7.33c5.36,0,10.63,1.42,15.24,4.11.15.09.2.27.11.42-.09.15-.27.2-.42.11-4.51-2.63-9.68-4.03-14.93-4.03C14.55,7.95,1.24,21.25,1.24,37.61s13.3,29.66,29.66,29.66c8.91,0,17.26-3.95,22.93-10.84.11-.13.3-.15.43-.04.13.11.15.3.04.43-5.78,7.03-14.31,11.07-23.4,11.07Z"/>
    <g>
      <path class="cls-1" d="M33.81,33.73c-.34,3.74-2.85,5.84-3.42,6.26l-.39-.22c.11-.2.1-.41.08-.56,0-.1,0-.17,0-.19.06-.05.25-.07.39-.09.25-.02.54-.05.71-.26.17-.21.13-.49.11-.75-.02-.14-.03-.33,0-.4.05-.06.24-.12.38-.17.25-.08.51-.16.63-.38.13-.23.05-.51-.02-.76-.03-.13-.09-.32-.06-.38.04-.08.22-.17.37-.23.23-.11.46-.22.55-.44.1-.27-.01-.55-.12-.8-.04-.1-.11-.27-.1-.32.05-.16.11-.18.27-.22.12-.03.28-.08.4-.23.09.05.16.09.21.12Z"/>
      <path class="cls-1" d="M6.33,26.11c-.06.21.06.44.17.65.08.15.18.34.16.44-.01.06-.17.18-.27.25-.21.16-.44.34-.48.61-.04.25.12.46.27.67.09.12.21.29.2.37,0,.07-.15.21-.24.31-.18.18-.38.39-.38.65s.2.46.38.64c.1.1.24.25.25.32,0,.07-.1.24-.18.36-.14.21-.3.46-.24.71.05.23.25.37.44.49.04.03.08.06.12.08l-.77-.05c-.24-.67-1.18-3.79.59-7.11.14,0,.38.03.69.05-.04.02-.09.03-.15.05-.17.04-.44.11-.55.51Z"/>
      <path class="cls-2" d="M32.49,33.93c-.07.21.02.42.11.64.07.16.15.36.11.45-.02.06-.21.14-.32.19-.22.1-.48.22-.59.46-.1.21-.03.46.03.7.04.14.09.34.06.41-.03.06-.24.12-.36.16-.23.07-.49.15-.63.36-.13.2-.1.45-.08.7.02.14.04.35,0,.41-.04.06-.25.08-.39.09-.24.02-.49.05-.67.21-.17.17-.16.39-.14.56,0,.13.01.21-.02.29l-2.32-1.33c-.07-.04-.15-.04-.22,0-.07.04-.12.1-.13.18,0,.05-.55,4.87-2.46,8.56-4.36,1.09-6.15,4.64-6.42,5.21-.28.16-1.53.79-3.17.79-.55,0-1.13-.07-1.74-.25-2.43-.73-3.6-2.77-3.8-3.15.09-.62.54-4.57-2.49-7.88.43-4.13,2.63-8.46,2.65-8.5.03-.07.03-.15,0-.22-.04-.07-.11-.11-.19-.11l-2.16-.13c-.11-.24-.33-.38-.51-.5-.1-.06-.24-.16-.25-.21-.02-.07.1-.25.18-.37.14-.21.27-.42.25-.65-.02-.24-.21-.42-.38-.6-.1-.1-.25-.25-.25-.32,0-.07.15-.23.25-.33.17-.18.35-.36.37-.6.02-.25-.14-.47-.28-.67-.07-.1-.19-.28-.18-.33.01-.09.18-.22.31-.31.19-.15.39-.3.44-.52.06-.27-.08-.53-.21-.76-.05-.1-.14-.26-.13-.31.04-.14.07-.15.22-.18.17-.04.42-.11.57-.46,1.55.12,4.15.33,6.37.55,1.12,4.34,5.51,5.44,5.53,5.44.04.02,4.31,1.52,7.64-1.5,2.19,1.16,4.78,2.58,6.05,3.28-.02.01-.06.02-.1.03-.18.05-.45.13-.57.52Z"/>
      <path class="cls-3" d="M34.16,33.4s-3.93-2.19-6.98-3.8c-.09-.05-.19-.03-.26.04-3.14,2.96-7.25,1.52-7.31,1.5-.04,0-4.27-1.07-5.26-5.27-.02-.1-.1-.17-.2-.18-3.43-.33-7.88-.66-7.92-.67-.09,0-.17.04-.22.12-2.21,3.97-.7,7.62-.63,7.78.03.08.11.13.2.14l1.39.08s.03,0,.04,0h0l1.95.12c-.52,1.09-2.21,4.85-2.56,8.46,0,.07.02.13.06.18,3.16,3.37,2.45,7.59,2.44,7.63,0,.05,0,.1.02.14.05.11,1.25,2.59,4.12,3.45.67.2,1.3.28,1.89.28,1.95,0,3.37-.85,3.45-.89.04-.02.07-.06.09-.1.02-.04,1.73-3.96,6.23-5.04.06-.02.12-.06.15-.12,1.69-3.2,2.35-7.27,2.52-8.47l2.15,1.24s.04.02.06.03l.73.42c.08.05.17.04.24,0,.14-.09,3.41-2.31,3.75-6.84,0-.09-.04-.17-.12-.22ZM30.39,40l-.39-.22-.4-.23-2.32-1.33c-.07-.04-.15-.04-.22,0-.07.04-.12.1-.13.18,0,.05-.55,4.87-2.46,8.56-4.36,1.09-6.15,4.64-6.42,5.21-.28.16-1.53.79-3.17.79-.55,0-1.13-.07-1.74-.25-2.43-.73-3.6-2.77-3.8-3.15.09-.62.54-4.57-2.49-7.88.43-4.13,2.63-8.46,2.65-8.5.03-.07.03-.15,0-.22-.04-.07-.11-.11-.19-.11l-2.16-.13-.64-.04-.77-.05c-.24-.67-1.18-3.79.59-7.11.14,0,.38.03.69.05.16.01.34.03.54.04,1.55.12,4.15.33,6.37.55,1.12,4.34,5.51,5.44,5.53,5.44.04.02,4.31,1.52,7.64-1.5,2.19,1.16,4.78,2.58,6.05,3.28.17.1.32.18.44.24.09.05.16.09.21.12-.34,3.74-2.85,5.84-3.42,6.26Z"/>
      <path class="cls-3" d="M26.36,30.63c-.05,0-.1-.02-.14-.05-.03-.02-2.86-2.25-5.52-3.05-2.57-.77-6.25-.49-6.29-.49-.13,0-.24-.08-.25-.21-.01-.13.08-.24.21-.25.15-.01,3.8-.29,6.46.5,2.75.82,5.56,3.04,5.68,3.13.1.08.12.22.04.32-.05.06-.11.09-.18.09Z"/>
      <path class="cls-3" d="M20.56,27.48s-.05,0-.07-.01c-.12-.04-.19-.17-.15-.29l.91-2.85c.04-.12.17-.19.28-.15.36.11.74.07,1.08-.11.33-.18.58-.48.68-.84.22-.75-.2-1.54-.95-1.76-.75-.22-1.54.2-1.76.95-.04.12-.16.19-.29.15-.12-.04-.19-.16-.15-.29.3-.99,1.35-1.55,2.33-1.26.99.3,1.56,1.34,1.26,2.33-.14.48-.47.87-.91,1.11-.37.2-.8.27-1.21.2l-.85,2.65c-.03.1-.12.16-.22.16Z"/>
      <g>
        <path class="cls-3" d="M19.98,37.84c-.08,0-.16,0-.24.02.03-.07.06-.15.08-.23.16-.53.1-1.08-.16-1.57-.26-.48-.7-.84-1.22-1-1.09-.33-2.24.29-2.57,1.38-.02.08-.04.16-.06.24-.06-.06-.12-.1-.19-.15-.45-.31-1-.43-1.54-.33-.54.1-1.01.4-1.33.86-.65.94-.41,2.22.52,2.87.07.05.14.09.21.13-.07.04-.14.09-.2.14-.44.33-.72.82-.79,1.36-.07.55.07,1.09.4,1.53.69.9,1.99,1.08,2.89.39.06-.05.13-.1.18-.16.02.08.04.16.07.23.18.52.56.94,1.05,1.18.28.13.59.2.89.2.23,0,.46-.04.68-.12.52-.18.94-.56,1.18-1.05.24-.5.27-1.06.09-1.57-.03-.08-.06-.15-.09-.23.06,0,.12,0,.18,0h.06c.55-.01,1.06-.24,1.44-.64.38-.4.58-.92.57-1.47-.02-1.14-.97-2.03-2.11-2.02ZM21.19,41.01c-.29.31-.69.48-1.12.49-.24,0-.47-.04-.69-.14-.1-.05-.22-.01-.29.08-.06.09-.05.21.03.29.17.17.3.37.38.6.14.4.12.84-.07,1.22-.18.39-.51.67-.91.82-.4.14-.84.12-1.22-.07-.39-.18-.67-.51-.82-.91-.08-.23-.1-.46-.08-.7.01-.11-.06-.21-.16-.25-.02,0-.05-.01-.07-.01-.08,0-.17.05-.21.13-.11.22-.26.4-.45.54-.34.26-.76.37-1.18.32-.43-.06-.8-.28-1.06-.62-.26-.34-.37-.76-.31-1.19.06-.42.28-.8.62-1.06.19-.14.4-.24.64-.29.11-.02.18-.12.18-.23,0-.11-.08-.21-.19-.22-.24-.04-.46-.13-.66-.26-.72-.5-.91-1.5-.4-2.23.24-.35.61-.59,1.03-.67.42-.08.85.02,1.2.26.2.14.36.31.48.52.06.1.17.14.28.1.1-.04.17-.14.15-.25-.04-.24-.02-.48.05-.7.12-.41.4-.75.78-.95.37-.2.81-.25,1.22-.13.41.12.75.4.95.78.2.37.25.81.12,1.22-.07.23-.18.44-.35.62-.08.08-.08.21-.02.29.07.09.19.12.29.07.22-.11.45-.17.68-.17.88-.03,1.62.68,1.64,1.56.01.43-.15.83-.44,1.14Z"/>
        <path class="cls-1" d="M19.99,38.3c-.24,0-.47.06-.68.17-.1.05-.22.02-.29-.07-.06-.09-.06-.21.02-.29.16-.18.28-.39.35-.62.12-.41.08-.84-.12-1.22-.2-.38-.54-.65-.95-.78-.41-.12-.84-.08-1.22.13-.38.2-.65.54-.78.95-.07.23-.08.46-.05.7.02.11-.05.22-.15.25-.1.04-.22,0-.28-.1-.12-.21-.28-.38-.48-.52-.35-.24-.78-.33-1.2-.26-.42.08-.79.31-1.03.67-.5.72-.32,1.72.4,2.23.2.13.42.22.66.26.11.02.19.11.19.22,0,.11-.07.21-.18.23-.24.05-.45.15-.64.29-.34.26-.56.64-.62,1.06-.06.43.06.85.31,1.19.26.34.64.56,1.06.62.42.06.84-.06,1.18-.32.19-.14.34-.33.45-.54.04-.08.12-.13.21-.13.02,0,.05,0,.07.01.1.03.17.13.16.25-.03.24,0,.48.08.7.14.4.43.73.82.91.39.19.82.21,1.22.07.4-.14.73-.43.91-.82.19-.39.21-.82.07-1.22-.08-.22-.21-.43-.38-.6-.08-.08-.09-.2-.03-.29.06-.09.18-.13.29-.08.22.1.45.15.69.14.43,0,.83-.18,1.12-.49.29-.31.45-.71.44-1.14-.02-.88-.76-1.59-1.64-1.56ZM19.06,40.6c-.17.56-.54,1.02-1.05,1.29-.32.17-.67.26-1.03.26-.21,0-.42-.03-.63-.1-1.15-.34-1.81-1.56-1.46-2.71.34-1.15,1.56-1.81,2.71-1.46,1.15.34,1.8,1.56,1.46,2.71Z"/>
        <path class="cls-3" d="M17.6,37.89c-1.15-.35-2.37.31-2.71,1.46-.35,1.15.31,2.37,1.46,2.71.21.06.42.1.63.1.36,0,.71-.09,1.03-.26.51-.28.89-.73,1.05-1.29.34-1.15-.31-2.37-1.46-2.71ZM18.61,40.47c-.13.44-.43.8-.83,1.02-.4.22-.87.27-1.31.13-.44-.13-.8-.43-1.02-.83-.22-.4-.27-.87-.13-1.31.22-.75.91-1.23,1.65-1.23.16,0,.33.02.49.07.74.22,1.22.91,1.22,1.64,0,.16-.02.33-.07.49Z"/>
        <path class="cls-2" d="M18.69,39.97c0,.16-.02.33-.07.49-.13.44-.43.8-.83,1.02-.4.22-.87.27-1.31.13-.44-.13-.8-.43-1.02-.83-.22-.4-.27-.87-.13-1.31.22-.75.91-1.23,1.65-1.23.16,0,.33.02.49.07.74.22,1.22.91,1.22,1.64Z"/>
      </g>
      <path class="cls-3" d="M33.72,33.37c-.03.1-.08.18-.13.24-.12.15-.28.2-.4.23-.15.05-.21.06-.27.22,0,.05.06.22.1.32.1.25.22.53.12.8-.09.22-.33.33-.55.44-.15.07-.33.15-.37.23-.03.06.02.25.06.38.07.25.14.52.02.76-.12.22-.38.3-.63.38-.14.04-.33.1-.38.17-.04.06-.02.25,0,.4.03.25.06.54-.11.75-.16.21-.45.23-.71.26-.14.02-.33.03-.39.09-.02.02-.02.09,0,.19.01.15.03.36-.08.56-.05.08-.11.16-.2.24-.04.04-.1.06-.15.06-.03,0-.06,0-.09-.02-.02,0-.04-.02-.06-.03,0,0-.02-.02-.03-.03-.08-.1-.07-.25.03-.33.05-.04.08-.08.1-.12.04-.08.03-.17.02-.29-.01-.16-.03-.38.14-.56.17-.17.42-.19.67-.21.14-.01.35-.03.39-.09.05-.06.02-.27,0-.41-.02-.25-.05-.5.08-.7.13-.21.4-.29.63-.36.12-.04.33-.1.36-.16.04-.07-.02-.27-.06-.41-.07-.24-.13-.48-.03-.7.1-.23.36-.35.59-.46.1-.05.3-.14.32-.19.04-.09-.05-.29-.11-.45-.09-.21-.18-.43-.11-.64.12-.39.39-.47.57-.52.04-.01.07-.02.1-.03.07-.02.1-.06.13-.14.04-.12.17-.19.29-.14.12.04.18.17.14.29Z"/>
      <path class="cls-3" d="M7.63,25.41c-.02.07-.04.13-.06.18-.15.35-.4.41-.57.46-.14.03-.18.04-.22.18,0,.05.08.21.13.31.12.23.26.49.21.76-.05.22-.25.37-.44.52-.13.1-.29.23-.31.31,0,.06.11.23.18.33.14.2.3.42.28.67-.02.24-.2.42-.37.6-.1.1-.25.25-.25.33,0,.07.15.22.25.32.17.17.36.36.38.6.02.24-.12.45-.25.65-.08.12-.19.29-.18.37,0,.05.14.14.25.21.18.12.4.26.51.5.03.05.05.11.06.17.03.12-.05.25-.17.27-.02,0-.03,0-.05,0h0s-.03,0-.04,0c-.09-.02-.17-.09-.19-.18-.02-.12-.13-.21-.25-.31-.04-.02-.08-.05-.12-.08-.19-.13-.39-.26-.44-.49-.06-.25.1-.5.24-.71.08-.12.19-.28.18-.36,0-.08-.15-.22-.25-.32-.18-.18-.38-.38-.38-.64s.2-.47.38-.65c.1-.1.24-.24.24-.31,0-.08-.11-.25-.2-.37-.15-.21-.3-.43-.27-.67.04-.27.28-.45.48-.61.1-.07.25-.19.27-.25.02-.1-.08-.29-.16-.44-.11-.21-.23-.43-.17-.65.11-.4.38-.47.55-.51.06-.02.11-.03.15-.05.07-.04.12-.1.16-.26.03-.12.16-.2.28-.16.12.03.2.16.16.28Z"/>
    </g>
    <g>
      <path class="cls-3" d="M64.26,46.53c-.25-.58-.52-1.14-.81-1.68,0,0,0,0,0-.01,0-.02-.02-.04-.03-.06-3.41-6.35-8.97-9.35-11.34-10.38-.76-.33-1.24-1.09-1.22-1.93l.02-.49c0-.11-.07-.21-.18-.23-3.23-.77-2.86-4.22-2.84-4.37.02-.12-.06-.23-.18-.25-.05,0-1.17-.23-2.05.17-.08.04-.14.14-.14.23,0,.8-.02,2.92-2.09,3.45-2.12.55-3.67-1.22-4.04-1.88-.04-.08-.13-.13-.22-.12-.56.04-1.07.31-1.41.53-.25.16-.41.3-.43.31-.09.08-.1.21-.03.31.09.12,2.12,2.95-.33,5.19-.08.07-.1.2-.04.29.27.44.51.86.72,1.22.37.63.37,1.41,0,2.04-1.35,2.34-4.2,8.31-3.03,15.38,0,0,0,.02,0,.03,0,.02,0,.03,0,.04.08.48.18.97.3,1.46.02.09.09.15.17.17,2.15.48,4.07.69,5.83.69,6.09,0,10.11-2.56,14.3-5.23,2.7-1.72,5.49-3.5,8.92-4.56.06-.02.11-.06.14-.12.03-.06.03-.13,0-.19ZM54.95,51.01c-5.29,3.37-10.29,6.56-19.64,4.51-.09-.37-.16-.73-.23-1.09-.03-.15-.05-.31-.07-.46h0c-1.06-6.84,1.7-12.6,3.01-14.88.44-.77.44-1.73,0-2.5-.18-.32-.4-.68-.63-1.06,2.18-2.16.81-4.78.37-5.49.02-.01.03-.02.05-.03.11-.08.25-.17.42-.27.23-.13.51-.24.81-.29.53.82,2.21,2.56,4.48,1.97,2.27-.59,2.41-2.82,2.43-3.76.29-.1.6-.14.87-.14.18,0,.35,0,.48.02.03,0,.06,0,.09,0-.03.84.07,3.79,3.03,4.61v.31c-.04,1.02.55,1.95,1.49,2.36,2.29,1,7.62,3.87,10.97,9.9.09.15.17.29.24.44.22.42.44.86.64,1.32-3.37,1.09-6.12,2.84-8.78,4.53Z"/>
      <path class="cls-2" d="M63.74,46.48c-3.37,1.09-6.12,2.84-8.78,4.53-5.29,3.37-10.29,6.56-19.64,4.51-.09-.37-.16-.73-.23-1.09.21-.04.42-.09.64-.14.46-.11.93-.22,1.22-.17.31.04.63.36.94.66.37.35.74.71,1.18.74.02,0,.04,0,.06,0,.47,0,.89-.33,1.3-.64.32-.25.64-.5.91-.51.3-.02.68.22,1.04.45.43.27.88.56,1.33.49.49-.08.84-.51,1.18-.92.26-.31.52-.64.78-.71.29-.08.69.06,1.09.21.49.17,1,.35,1.43.18.44-.18.69-.66.93-1.13.19-.37.38-.75.64-.88.26-.13.68-.06,1.1,0,.51.08,1.03.17,1.43-.06.39-.23.57-.73.75-1.21.14-.4.3-.81.54-.97.25-.15.68-.11,1.1-.07.51.05,1.02.1,1.41-.14.37-.24.55-.72.72-1.19.15-.4.31-.83.56-.98.25-.15.69-.08,1.11,0,.49.08,1,.17,1.4-.04.38-.2.61-.65.83-1.08.2-.4.41-.8.69-.92.32-.13.9-.18,1.45-.22.09,0,.17-.01.26-.02.22.42.44.86.64,1.32Z"/>
      <path class="cls-1" d="M62.86,44.72s-.03,0-.05,0c-.59.05-1.21.09-1.6.25-.44.18-.68.67-.92,1.14-.19.37-.38.75-.63.88-.26.13-.69.06-1.11,0-.5-.08-1.02-.17-1.42.06-.4.24-.58.73-.76,1.21-.14.4-.3.81-.54.96-.25.16-.69.11-1.11.07-.5-.05-1.02-.1-1.4.13-.38.24-.56.73-.73,1.2-.15.4-.3.82-.56.97-.25.15-.69.08-1.12,0-.49-.08-.99-.16-1.39.04-.38.2-.61.64-.84,1.08-.2.39-.41.8-.69.91-.27.11-.69-.04-1.1-.19-.46-.16-.94-.33-1.37-.21-.4.11-.71.49-1.01.86-.29.35-.58.71-.89.76-.28.04-.65-.19-1.01-.42-.42-.27-.85-.54-1.3-.52-.41.02-.8.32-1.17.61-.36.28-.72.57-1.05.55-.27-.02-.59-.32-.89-.61-.36-.35-.74-.71-1.19-.78-.37-.06-.87.06-1.39.18-.2.05-.41.1-.6.13-1.06-6.83,1.7-12.6,3.01-14.87.44-.77.44-1.73,0-2.5-.18-.32-.4-.68-.63-1.06,2.18-2.16.81-4.78.37-5.49.02-.01.03-.02.05-.03.11.09.26.17.41.26.21.12.45.25.57.39.06.07.1.23.14.38.07.26.14.56.38.74.21.16.48.16.75.16.18,0,.36,0,.47.05.09.05.2.18.29.31.16.21.35.45.63.52.05.01.1.02.14.02.22,0,.43-.1.62-.2.15-.08.32-.16.44-.16h0c.1,0,.25.07.39.13.24.12.52.25.81.17.28-.07.45-.31.6-.53.09-.13.18-.25.26-.3.1-.05.26-.06.42-.06.26,0,.55-.02.75-.21.2-.19.21-.48.23-.74,0-.16.02-.33.07-.42.05-.08.18-.17.31-.25.22-.14.47-.3.55-.57.07-.24-.02-.48-.12-.71-.06-.16-.13-.33-.12-.44.01-.1.11-.27.2-.43.11-.19.22-.39.27-.58.03,0,.06,0,.09,0-.03.84.07,3.79,3.03,4.61v.31c-.04,1.02.55,1.95,1.49,2.36,2.29,1,7.62,3.87,10.97,9.9Z"/>
      <path class="cls-2" d="M46.37,28.49c-.03.24.06.47.15.67.06.15.13.32.11.41-.04.11-.2.22-.36.32-.17.11-.36.23-.46.41-.11.18-.12.4-.13.62-.01.17-.02.37-.1.44-.07.07-.27.08-.44.08-.21,0-.44.02-.63.11-.18.1-.3.27-.42.44-.11.15-.22.31-.33.34-.13.03-.32-.06-.5-.14-.19-.09-.4-.18-.6-.17-.23,0-.45.11-.64.21-.17.08-.34.17-.45.14-.12-.03-.25-.19-.37-.35-.13-.17-.27-.35-.46-.44-.21-.1-.46-.1-.68-.1-.19,0-.38,0-.46-.06-.11-.09-.16-.29-.21-.49-.06-.21-.11-.42-.25-.58-.18-.19-.45-.35-.68-.48-.07-.04-.15-.08-.22-.13.23-.13.51-.24.81-.29.53.82,2.21,2.56,4.48,1.97,2.27-.59,2.41-2.82,2.43-3.76.29-.1.6-.14.87-.14-.04.12-.12.25-.19.37-.12.21-.23.41-.26.6Z"/>
      <path class="cls-3" d="M48.74,37.66c-.4-.46-.83-.47-1.12-.39-1.18.3-1.51,1.44-1.59,2.3-.4-.72-1.06-1.64-1.9-1.91-.48-.16-.97-.08-1.44.22-.63.41-.97,1-.98,1.71-.02,1.89,2.31,4.49,6.55,7.34.04.02.08.04.13.04.02,0,.04,0,.07,0,.06-.02.12-.07.14-.13,1.46-3.59,1.27-7.88.13-9.17ZM48.29,46.39c-3.9-2.66-6.12-5.13-6.11-6.8,0-.55.26-1,.77-1.33.23-.15.46-.23.7-.23.12,0,.23.02.35.06,1.2.39,2.06,2.56,2.06,2.58.04.11.16.17.27.14.11-.03.19-.14.17-.25,0-.02-.3-2.46,1.24-2.86.24-.06.45.02.66.25,1,1.14,1.15,5.1-.11,8.43Z"/>
      <path class="cls-2" d="M48.29,46.39c-3.9-2.66-6.12-5.13-6.11-6.8,0-.55.26-1,.77-1.33.23-.15.46-.23.7-.23.12,0,.23.02.35.06,1.2.39,2.06,2.56,2.06,2.58.04.11.16.17.27.14.11-.03.19-.14.17-.25,0-.02-.3-2.46,1.24-2.86.24-.06.45.02.66.25,1,1.14,1.15,5.1-.11,8.43Z"/>
      <path class="cls-3" d="M63.46,44.9c.01.13-.08.24-.21.25-.05,0-.1,0-.15.01-.09,0-.17.01-.26.02-.56.04-1.13.08-1.45.22-.28.12-.49.52-.69.92-.22.43-.44.88-.83,1.08-.4.21-.91.12-1.4.04-.42-.07-.86-.14-1.11,0-.25.15-.41.57-.56.98-.17.47-.35.95-.72,1.19-.39.24-.91.19-1.41.14-.42-.04-.86-.09-1.1.07-.25.16-.4.57-.54.97-.18.48-.36.98-.75,1.21-.4.24-.92.15-1.43.06-.41-.07-.84-.14-1.1,0-.25.13-.45.51-.64.88-.24.47-.49.95-.93,1.13-.43.17-.94,0-1.43-.18-.4-.14-.8-.29-1.09-.21-.26.07-.52.4-.78.71-.34.41-.69.84-1.18.92-.44.07-.89-.22-1.33-.49-.36-.23-.74-.48-1.04-.45-.26,0-.59.26-.91.51-.41.32-.83.64-1.3.64-.02,0-.04,0-.06,0-.44-.02-.82-.39-1.18-.74-.31-.3-.63-.61-.94-.66-.29-.05-.76.06-1.22.17-.21.05-.43.1-.64.14-.08.01-.16.02-.23.04-.11.02-.22-.05-.25-.16,0-.01,0-.02,0-.04,0,0,0-.02,0-.03,0-.12.08-.21.2-.23.07,0,.15-.02.22-.04h0c.2-.04.4-.09.6-.13.52-.12,1.02-.23,1.39-.18.46.07.83.43,1.19.78.3.29.61.6.89.61.33.02.69-.27,1.05-.55.37-.29.76-.59,1.17-.61.45-.02.88.26,1.3.52.36.23.73.47,1.01.42.31-.05.61-.41.89-.76.3-.37.61-.75,1.01-.86.43-.12.91.05,1.37.21.41.15.83.29,1.1.19.28-.11.49-.52.69-.91.22-.43.45-.88.84-1.08.4-.2.9-.12,1.39-.04.43.07.87.14,1.12,0,.25-.15.41-.57.56-.97.17-.47.35-.96.73-1.2.38-.24.9-.19,1.4-.13.42.04.87.09,1.11-.07.24-.15.4-.56.54-.96.18-.48.36-.98.76-1.21.4-.23.92-.15,1.42-.06.42.07.85.14,1.11,0,.25-.13.44-.51.63-.88.24-.47.48-.95.92-1.14.39-.17,1.01-.21,1.6-.25.02,0,.03,0,.05,0,.12,0,.24-.02.36-.03.09,0,.16.03.2.09.02.02.03.04.03.06,0,0,0,0,0,.01,0,.01,0,.03,0,.04Z"/>
      <path class="cls-3" d="M48.19,36.44s0,0-.01,0c-.13,0-.22-.12-.22-.24l.06-.98c0-.13.11-.23.24-.22.13,0,.22.12.22.24l-.06.98c0,.12-.11.22-.23.22Z"/>
      <path class="cls-3" d="M48.93,36.95c-.05,0-.1-.02-.14-.05-.1-.08-.11-.22-.04-.32l1.2-1.49c.08-.1.23-.11.32-.04.1.08.11.22.04.32l-1.2,1.49c-.05.06-.11.09-.18.09Z"/>
      <path class="cls-3" d="M49.66,37.57c-.11,0-.21-.08-.23-.2-.02-.13.07-.24.19-.26l1.03-.15c.12-.02.24.07.26.19.02.13-.07.24-.19.26l-1.03.15s-.02,0-.03,0Z"/>
      <path class="cls-3" d="M47.02,28.11c-.09.16-.19.33-.2.43-.02.12.05.28.12.44.1.23.19.47.12.71-.08.28-.33.44-.55.57-.13.08-.26.17-.31.25-.05.1-.06.26-.07.42-.02.25-.04.54-.23.74-.2.19-.49.2-.75.21-.16,0-.33.01-.42.06-.08.04-.17.17-.26.3-.15.21-.32.45-.6.53-.29.08-.57-.05-.81-.17-.14-.06-.29-.13-.39-.13h0c-.13,0-.29.08-.44.16-.19.09-.4.2-.62.2-.05,0-.1,0-.14-.02-.29-.06-.47-.31-.63-.52-.1-.13-.2-.27-.29-.31-.11-.06-.29-.05-.47-.05-.26,0-.54,0-.75-.16-.23-.18-.31-.48-.38-.74-.04-.15-.08-.31-.14-.38-.13-.14-.37-.28-.57-.39-.16-.09-.3-.17-.41-.26-.07-.06-.13-.12-.17-.19-.06-.11-.02-.25.09-.31.11-.06.25-.02.31.09.02.04.1.09.19.15.07.05.15.09.22.13.24.14.51.29.68.48.14.15.19.37.25.58.05.2.1.4.21.49.09.06.28.06.46.06.22,0,.47,0,.68.1.19.1.33.27.46.44.12.16.25.32.37.35.1.02.28-.06.45-.14.19-.1.41-.21.64-.21.19,0,.4.09.6.17.18.09.37.17.5.14.12-.03.23-.19.33-.34.12-.17.24-.35.42-.44.19-.1.41-.1.63-.11.17,0,.37,0,.44-.08.07-.07.08-.26.1-.44.01-.21.03-.44.13-.62.1-.18.28-.29.46-.41.16-.1.32-.21.36-.32.02-.09-.05-.26-.11-.41-.08-.21-.18-.44-.15-.67.02-.19.14-.39.26-.6.07-.12.14-.26.19-.37.03-.06.04-.13.04-.17,0-.13.1-.23.23-.23h0c.13,0,.23.1.23.23,0,.06,0,.13-.02.19-.05.2-.16.39-.27.58Z"/>
      <path class="cls-3" d="M42.6,31.53c-1.92,0-3.28-1.58-3.64-2.22-.06-.11-.02-.25.09-.31.11-.06.25-.02.31.09.37.66,1.92,2.43,4.04,1.88,2.07-.54,2.08-2.66,2.09-3.45l.23-.02h.23c0,.83-.02,3.29-2.43,3.92-.32.08-.62.12-.92.12Z"/>
      <path class="cls-3" d="M37.11,32.16c-.07,0-.14-.03-.19-.1-.07-.1-.05-.25.05-.32.02-.01.39-.28,1-.67.11-.07.25-.03.32.07.07.11.03.25-.07.32-.6.37-.98.65-.98.65-.04.03-.09.04-.13.04Z"/>
      <path class="cls-3" d="M49.33,28.99s-.02,0-.03,0c0,0-.68-.09-1.64-.12-.13,0-.23-.11-.22-.24,0-.13.11-.23.24-.22.99.04,1.66.12,1.68.12.13.02.22.13.2.26-.01.12-.11.2-.23.2Z"/>
      <path class="cls-3" d="M39.98,30.42c-.08,0-.16-.05-.2-.12-.06-.11-.01-.25.1-.31,1.01-.52,1.93-.9,2.74-1.13.07-.02.14-.04.21-.06.81-.21,1.75-.34,2.81-.39.13,0,.23.09.24.22,0,.13-.09.23-.22.24-1.02.05-1.94.17-2.71.38-.07.02-.13.03-.2.05-.78.22-1.67.59-2.66,1.1-.03.02-.07.03-.11.03Z"/>
      <path class="cls-3" d="M42.68,29.3c-.1,0-.2-.07-.22-.18l-.69-3.03c-.03-.12.05-.24.17-.27.76-.2,1.22-.98,1.03-1.75-.2-.76-.98-1.22-1.75-1.03-.37.1-.68.33-.87.66-.19.33-.25.72-.15,1.09.03.12-.04.25-.16.28-.12.03-.25-.04-.28-.16-.13-.49-.06-1,.2-1.43.26-.44.67-.75,1.16-.87,1.01-.26,2.04.35,2.31,1.36.24.94-.26,1.89-1.14,2.24l.65,2.82c.03.12-.05.25-.17.28-.02,0-.03,0-.05,0Z"/>
    </g>
    <path class="cls-3" d="M57.73,26.48c-1.54,0-2.8-1.25-2.8-2.8,0-.17.14-.31.31-.31s.31.14.31.31c0,1.2.98,2.18,2.18,2.18s2.18-.98,2.18-2.18-.98-2.18-2.18-2.18c-.17,0-.31-.14-.31-.31s.14-.31.31-.31c1.54,0,2.8,1.25,2.8,2.8s-1.25,2.8-2.8,2.8Z"/>
    <path class="cls-3" d="M34.22,25.83c-4.41,0-7.9-1.49-11.32-2.94-5.21-2.22-10.13-4.31-17.71-.17-.15.08-.33.03-.42-.12-.08-.15-.03-.34.12-.42,7.84-4.29,12.89-2.13,18.24.15,5.29,2.25,10.75,4.58,19.6,1.14,8.49-3.3,15.54-2.76,18.99-2.14.24.04.59.06.91-.11.59-.3.9-.95.76-1.61-.11-.55-.55-.99-1.1-1.11-.44-.09-.89.01-1.24.29-.34.28-.54.69-.54,1.13,0,.17-.14.31-.31.31s-.31-.14-.31-.31c0-.63.28-1.21.77-1.61.49-.4,1.13-.55,1.75-.41.78.17,1.41.8,1.57,1.58.19.94-.24,1.85-1.08,2.28-.38.19-.83.25-1.3.17-3.39-.6-10.31-1.13-18.66,2.11-3.33,1.29-6.19,1.79-8.75,1.79Z"/>
    <path class="cls-3" d="M26.36,13.5c-.07,0-.14-.03-.18-.09-2.57-3.25-6.92-3.18-6.96-3.18-.13,0-.23-.1-.24-.22,0-.13.1-.23.22-.24.19,0,4.62-.09,7.34,3.35.08.1.06.24-.04.32-.04.03-.09.05-.14.05Z"/>
    <path class="cls-3" d="M28.22,13.39c-.1-1.44-1.3-2.56-2.72-2.56-.06,0-.12,0-.18,0l-1.43.09c-.13,0-.22.12-.21.24l.09,1.43c.09,1.45,1.3,2.56,2.73,2.56.06,0,.12,0,.18,0l1.43-.09c.13,0,.22-.12.21-.25l-.09-1.43ZM26.64,14.69c-.6.04-1.19-.16-1.65-.56-.46-.4-.73-.96-.77-1.56l-.08-1.2,1.2-.08c1.25-.08,2.33.87,2.41,2.13l.08,1.2-1.2.08Z"/>
    <path class="cls-3" d="M31.7,7.88c-.1,0-.15,0-.16,0-.13,0-.22-.11-.22-.24,0-.13.1-.22.24-.22.2,0,5.05.2,5.65-3.6.07-.44-.04-1.01-.59-1.19-.48-.16-1,.1-1.16.58-.08.23-.06.48.05.7.11.22.3.38.53.46.12.04.19.17.15.29-.04.12-.17.19-.29.15-.35-.12-.63-.36-.8-.69-.17-.33-.19-.7-.08-1.05.24-.72,1.02-1.12,1.74-.88.66.22,1.02.9.9,1.7-.61,3.79-5.07,3.99-5.97,3.99Z"/>
  </g>
  <g>
    <g>
      <path class="cls-3" d="M89.12,25.8c.17.05.47.16.88.33.42.17.9.4,1.44.68.54.28,1.11.63,1.7,1.03.59.41,1.14.87,1.66,1.38.52.52.96,1.09,1.33,1.71.37.63.6,1.31.7,2.05v.37c0,1.01-.2,1.99-.59,2.93-.39.95-.95,1.78-1.66,2.49-.79.79-1.71,1.39-2.77,1.81-1.06.42-2.18.63-3.36.63h-.3c-1.5-.05-2.86-.47-4.09-1.27-1.23-.8-2.15-1.87-2.77-3.23-.07-.15-.11-.36-.11-.63s.09-.54.26-.81c.17-.27.43-.48.77-.63.05-.05.2-.07.44-.07.3,0,.57.07.83.22.26.15.45.36.57.63.39.86.96,1.53,1.71,2.01.75.48,1.59.73,2.53.76h.18c1.62,0,2.91-.5,3.87-1.51.98-.93,1.47-2.04,1.47-3.32v-.15c-.05-.57-.29-1.1-.72-1.6-.43-.5-.93-.96-1.51-1.36-.58-.41-1.17-.76-1.79-1.05-.61-.29-1.13-.5-1.55-.63l.04.04c-.2-.07-.33-.11-.41-.11-3.52-1.28-5.27-3.52-5.27-6.71v-.3c.05-.88.27-1.71.66-2.47.39-.76.96-1.43,1.7-1.99.64-.52,1.38-.91,2.21-1.18.84-.27,1.72-.41,2.66-.41h.37c.71.02,1.43.17,2.16.44.72.27,1.39.63,2.01,1.07.12.17.26.37.42.61.16.23.24.44.24.61,0,.37-.12.68-.37.92-.32.39-.73.59-1.22.59-.12,0-.27-.02-.44-.06-.17-.04-.32-.12-.44-.24-.34-.25-.74-.45-1.2-.63-.46-.17-.89-.27-1.31-.3h-.3c-1.18,0-2.16.3-2.95.88-.79.59-1.19,1.35-1.22,2.29v.15c0,.61.1,1.13.3,1.55.2.42.46.77.79,1.07.33.3.7.55,1.11.76.41.21.83.4,1.27.57l.04.07Z"/>
      <path class="cls-3" d="M116.65,41.29c-.27,0-.51-.07-.72-.2-.21-.14-.39-.3-.53-.5l-13.16-18.84v18.07c0,.39-.15.74-.46,1.03-.31.3-.68.44-1.12.44-.39,0-.74-.15-1.03-.44-.3-.29-.44-.64-.44-1.03v-22.86c0-.37.15-.71.44-1.01.29-.31.65-.46,1.07-.46.27,0,.51.07.72.2.21.14.39.3.53.5l13.2,18.84v-18.07c0-.39.15-.74.44-1.03.29-.29.65-.44,1.07-.44s.77.15,1.07.44c.3.3.44.64.44,1.03v22.86c0,.39-.15.74-.44,1.03-.29.3-.65.44-1.07.44Z"/>
      <path class="cls-3" d="M130.1,41.29c-1.79,0-3.37-.41-4.72-1.24-1.35-.82-2.4-2.03-3.13-3.63-.27-.54-.47-1.08-.61-1.6-.14-.53-.24-1.01-.31-1.44-.07-.43-.12-.78-.13-1.05-.01-.27-.02-.44-.02-.52v-14.86c0-.39.15-.74.46-1.03.31-.29.67-.44,1.09-.44.39,0,.74.15,1.03.44.3.3.44.64.44,1.03v14.86c0,.1.02.33.06.68.04.36.13.77.28,1.25.15.48.35.98.61,1.51.26.53.6,1.01,1.03,1.46.43.44.97.81,1.62,1.11.65.3,1.42.44,2.3.44,1.28,0,2.31-.29,3.1-.87.79-.58,1.38-1.24,1.79-1.99.41-.75.68-1.48.81-2.18.13-.7.2-1.17.2-1.42v-14.86c0-.39.15-.74.44-1.03.3-.29.65-.44,1.07-.44s.77.15,1.05.44c.28.3.42.64.42,1.03v14.86c0,.07,0,.25-.02.52-.01.27-.05.62-.11,1.05-.06.43-.17.91-.31,1.44-.15.53-.34,1.06-.59,1.6-.74,1.6-1.78,2.81-3.12,3.63-1.34.82-2.92,1.24-4.74,1.24Z"/>
      <path class="cls-3" d="M154.9,41.29c-1.67,0-3.3-.31-4.89-.94-1.59-.63-3.01-1.57-4.26-2.82-1.2-1.23-2.13-2.62-2.78-4.19-.65-1.56-.98-3.21-.98-4.96s.33-3.36.98-4.92c.65-1.56,1.58-2.96,2.78-4.19,1.25-1.25,2.67-2.2,4.24-2.84,1.57-.64,3.21-.96,4.9-.96s3.37.32,4.94.96c1.57.64,2.99,1.59,4.24,2.84.27.25.41.59.41,1.03s-.15.81-.44,1.11c-.3.27-.65.41-1.07.41-.44,0-.8-.13-1.07-.41-.93-.93-2-1.65-3.19-2.16-1.19-.5-2.46-.76-3.82-.76s-2.61.25-3.78.76c-1.17.5-2.23,1.22-3.19,2.16-.93.93-1.65,2-2.16,3.19-.5,1.19-.76,2.45-.76,3.78s.25,2.59.76,3.78c.5,1.19,1.22,2.26,2.16,3.19.98.98,2.08,1.72,3.3,2.21,1.22.49,2.44.74,3.67.74,2.38,0,4.58-.82,6.6-2.47v-5.97h-6.49c-.42,0-.78-.14-1.09-.42-.31-.28-.46-.63-.46-1.05s.15-.77.46-1.05c.31-.28.67-.42,1.09-.42h7.97c.42,0,.77.14,1.07.42.3.28.44.63.44,1.05v8.04c0,.2-.04.4-.11.61-.07.21-.18.38-.33.5-1.25,1.25-2.67,2.19-4.24,2.82-1.57.63-3.21.94-4.9.94Z"/>
      <path class="cls-3" d="M180.18,41.29c-1.67,0-3.3-.31-4.89-.94-1.59-.63-3.01-1.57-4.26-2.82-1.2-1.23-2.13-2.62-2.78-4.19-.65-1.56-.98-3.21-.98-4.96s.33-3.36.98-4.92c.65-1.56,1.58-2.96,2.78-4.19,1.25-1.25,2.67-2.2,4.24-2.84,1.57-.64,3.21-.96,4.9-.96s3.37.32,4.94.96c1.57.64,2.99,1.59,4.24,2.84.27.25.41.59.41,1.03s-.15.81-.44,1.11c-.3.27-.65.41-1.07.41-.44,0-.8-.13-1.07-.41-.93-.93-2-1.65-3.19-2.16-1.19-.5-2.46-.76-3.82-.76s-2.61.25-3.78.76c-1.17.5-2.23,1.22-3.19,2.16-.93.93-1.65,2-2.16,3.19-.5,1.19-.76,2.45-.76,3.78s.25,2.59.76,3.78c.5,1.19,1.22,2.26,2.16,3.19.98.98,2.08,1.72,3.3,2.21,1.22.49,2.44.74,3.67.74,2.38,0,4.58-.82,6.6-2.47v-5.97h-6.49c-.42,0-.78-.14-1.09-.42-.31-.28-.46-.63-.46-1.05s.15-.77.46-1.05c.31-.28.67-.42,1.09-.42h7.97c.42,0,.77.14,1.07.42.3.28.44.63.44,1.05v8.04c0,.2-.04.4-.11.61-.07.21-.18.38-.33.5-1.25,1.25-2.67,2.19-4.24,2.82-1.57.63-3.21.94-4.9.94Z"/>
      <path class="cls-3" d="M194.25,41.29c-.42,0-.78-.15-1.09-.44-.31-.29-.46-.64-.46-1.03v-22.86c0-.39.15-.74.46-1.03.31-.29.67-.44,1.09-.44s.77.15,1.07.44c.3.3.44.64.44,1.03v21.31h8.7c.44,0,.82.15,1.12.44.31.3.46.66.46,1.11,0,.39-.15.74-.46,1.03-.31.3-.68.44-1.12.44h-10.21Z"/>
      <path class="cls-3" d="M218.82,15.73c.47.32.7.73.7,1.22,0,.39-.09.69-.26.88l-7.71,10.99v10.99c0,.39-.15.74-.46,1.03-.31.3-.68.44-1.13.44-.39,0-.74-.15-1.03-.44-.3-.29-.44-.64-.44-1.03v-10.99l-7.71-10.99c-.17-.2-.26-.44-.26-.74,0-.39.13-.76.41-1.11.27-.34.63-.52,1.07-.52.27,0,.52.07.74.2.22.14.41.3.55.5l6.67,9.55c1.06-1.47,2.19-3.06,3.39-4.76,1.2-1.7,2.34-3.29,3.39-4.79.15-.2.33-.36.53-.5.21-.13.45-.2.72-.2.34,0,.61.09.81.26Z"/>
      <path class="cls-3" d="M236.37,15.47c.44,0,.82.15,1.12.44.31.3.46.64.46,1.03,0,.44-.15.81-.46,1.11-.31.3-.68.44-1.12.44h-5.31v21.31c0,.39-.15.74-.44,1.03-.3.3-.65.44-1.07.44s-.77-.15-1.05-.44c-.28-.29-.42-.64-.42-1.03v-21.31h-5.35c-.42,0-.77-.15-1.07-.44-.29-.29-.44-.66-.44-1.11,0-.39.15-.74.44-1.03.3-.29.65-.44,1.07-.44h13.64Z"/>
      <path class="cls-3" d="M248.19,41.29c-1.7,0-3.29-.34-4.79-1.01-1.5-.68-2.81-1.6-3.93-2.77-1.12-1.17-2-2.54-2.66-4.11-.65-1.57-.98-3.25-.98-5.02s.33-3.44.98-5c.65-1.56,1.54-2.93,2.66-4.11,1.12-1.18,2.43-2.11,3.93-2.78,1.5-.68,3.1-1.01,4.79-1.01s3.29.34,4.79,1.01c1.5.68,2.8,1.6,3.91,2.78,1.11,1.18,1.98,2.55,2.64,4.11.65,1.56.98,3.23.98,5s-.33,3.44-.98,5.02c-.65,1.57-1.53,2.94-2.64,4.11-1.11,1.17-2.41,2.09-3.91,2.77-1.5.68-3.1,1.01-4.79,1.01ZM248.19,18.5c-1.3,0-2.52.26-3.65.77-1.13.52-2.11,1.22-2.95,2.1-.84.89-1.5,1.93-1.99,3.13-.49,1.2-.74,2.5-.74,3.87s.25,2.67.74,3.87c.49,1.2,1.16,2.25,1.99,3.13.84.88,1.82,1.59,2.95,2.1,1.13.52,2.35.77,3.65.77s2.48-.26,3.61-.77c1.13-.52,2.12-1.22,2.97-2.1.85-.89,1.51-1.93,1.99-3.13.48-1.2.72-2.5.72-3.87s-.24-2.67-.72-3.87c-.48-1.2-1.14-2.25-1.99-3.13-.85-.88-1.84-1.59-2.97-2.1-1.13-.52-2.34-.77-3.61-.77Z"/>
      <path class="cls-3" d="M273.84,15.47c.44,0,.82.15,1.12.44.31.3.46.64.46,1.03,0,.44-.15.81-.46,1.11-.31.3-.68.44-1.12.44h-5.31v21.31c0,.39-.15.74-.44,1.03-.3.3-.65.44-1.07.44s-.77-.15-1.05-.44c-.28-.29-.42-.64-.42-1.03v-21.31h-5.35c-.42,0-.77-.15-1.07-.44-.29-.29-.44-.66-.44-1.11,0-.39.15-.74.44-1.03.3-.29.65-.44,1.07-.44h13.64Z"/>
      <path class="cls-3" d="M283.51,25.8c.17.05.47.16.89.33.42.17.9.4,1.44.68.54.28,1.11.63,1.7,1.03.59.41,1.14.87,1.66,1.38.52.52.96,1.09,1.33,1.71s.6,1.31.7,2.05v.37c0,1.01-.2,1.99-.59,2.93-.39.95-.95,1.78-1.66,2.49-.79.79-1.71,1.39-2.77,1.81-1.06.42-2.18.63-3.36.63h-.3c-1.5-.05-2.86-.47-4.09-1.27-1.23-.8-2.15-1.87-2.77-3.23-.07-.15-.11-.36-.11-.63s.09-.54.26-.81c.17-.27.43-.48.77-.63.05-.05.2-.07.44-.07.3,0,.57.07.83.22.26.15.45.36.57.63.39.86.96,1.53,1.71,2.01s1.59.73,2.53.76h.18c1.62,0,2.91-.5,3.87-1.51.98-.93,1.47-2.04,1.47-3.32v-.15c-.05-.57-.29-1.1-.72-1.6-.43-.5-.93-.96-1.51-1.36-.58-.41-1.17-.76-1.79-1.05-.61-.29-1.13-.5-1.55-.63l.04.04c-.2-.07-.33-.11-.41-.11-3.52-1.28-5.27-3.52-5.27-6.71v-.3c.05-.88.27-1.71.66-2.47.39-.76.96-1.43,1.7-1.99.64-.52,1.38-.91,2.21-1.18.84-.27,1.72-.41,2.66-.41h.37c.71.02,1.43.17,2.16.44.72.27,1.39.63,2.01,1.07.12.17.26.37.42.61.16.23.24.44.24.61,0,.37-.12.68-.37.92-.32.39-.73.59-1.22.59-.12,0-.27-.02-.44-.06-.17-.04-.32-.12-.44-.24-.34-.25-.74-.45-1.2-.63-.46-.17-.89-.27-1.31-.3h-.3c-1.18,0-2.16.3-2.95.88-.79.59-1.19,1.35-1.22,2.29v.15c0,.61.1,1.13.29,1.55.2.42.46.77.79,1.07.33.3.7.55,1.11.76.41.21.83.4,1.27.57l.04.07Z"/>
    </g>
    <g>
      <g>
        <path class="cls-4" d="M102.2,53.71c-.13,0-.24-.05-.33-.14-.09-.09-.14-.2-.14-.33v-5.7c0-.13.05-.24.14-.33.09-.09.2-.14.33-.14h1.55s.05,0,.12,0c.07,0,.15.02.25.04.1.02.21.05.33.08.12.03.25.08.37.14.35.18.62.44.82.77.2.33.3.71.3,1.14,0,.01,0,.05,0,.12,0,.07-.01.15-.03.25-.02.1-.05.21-.08.33-.03.12-.08.25-.15.37h0c-.18.35-.44.63-.77.82-.33.19-.72.29-1.15.29h-1.08v1.81c0,.13-.05.24-.14.33-.09.09-.2.14-.34.14ZM102.68,50.49h1.08c.5,0,.86-.19,1.07-.56.04-.08.07-.15.09-.23.02-.08.04-.15.05-.21.01-.06.02-.12.02-.16,0-.04,0-.06,0-.07,0-.52-.2-.88-.6-1.08-.08-.04-.16-.07-.23-.09-.07-.02-.14-.03-.2-.05-.07-.01-.14-.02-.21-.02h-1.08v2.46Z"/>
        <path class="cls-4" d="M111.74,53.71c-.47,0-.88-.11-1.23-.32-.35-.21-.62-.53-.81-.95-.07-.15-.12-.29-.16-.42-.03-.14-.06-.26-.08-.36-.02-.11-.03-.2-.03-.27,0-.07,0-.12,0-.14v-3.7c0-.13.05-.24.14-.33.09-.09.21-.14.33-.14s.24.05.33.14c.09.09.14.2.14.33v3.7s0,.08.01.17c0,.09.03.18.06.29.03.11.08.23.14.36.06.13.15.24.25.35.1.1.23.19.38.26.15.07.33.1.54.1.3,0,.54-.07.72-.2.18-.14.32-.29.41-.46.09-.17.16-.34.19-.51.03-.17.05-.28.05-.34v-3.7c0-.13.05-.24.14-.33.09-.09.21-.14.33-.14s.24.05.33.14c.09.09.14.2.14.33v3.7s0,.06,0,.14-.01.16-.03.27c-.02.11-.04.23-.08.36-.04.14-.09.28-.15.42-.2.42-.47.73-.81.95-.35.21-.76.32-1.23.32Z"/>
        <path class="cls-4" d="M121.67,52.99h0c.05.09.08.17.08.26,0,.07-.02.14-.06.21-.04.07-.1.13-.17.18-.06.04-.14.07-.24.07-.18,0-.31-.07-.41-.22l-1.29-2.06h-1.11v1.81c0,.13-.05.24-.14.33-.09.09-.2.14-.34.14s-.24-.05-.33-.14-.14-.2-.14-.33v-5.7c0-.13.05-.24.14-.33.09-.09.2-.14.33-.14h1.55s.05,0,.12,0c.07,0,.15.02.25.04.1.02.21.05.33.08.12.03.25.08.37.14.35.18.62.44.82.77.2.33.3.71.3,1.14,0,.01,0,.05,0,.12,0,.07-.01.15-.03.25-.02.1-.05.21-.08.33-.03.12-.08.25-.15.37h0c-.09.19-.22.36-.37.51s-.33.28-.53.39l1.1,1.76ZM118.47,50.49h1.08c.5,0,.86-.19,1.07-.56.04-.08.07-.15.09-.23.02-.08.04-.15.05-.21.01-.06.02-.12.02-.16,0-.04,0-.06,0-.07,0-.52-.2-.88-.6-1.08-.08-.04-.16-.07-.23-.09-.07-.02-.14-.03-.2-.05-.07-.01-.14-.02-.21-.02h-1.08v2.46Z"/>
        <path class="cls-4" d="M129.15,52.9c.09.09.14.21.14.34s-.05.24-.14.33c-.09.09-.21.14-.33.14h-3.13c-.13,0-.24-.05-.34-.14s-.14-.2-.14-.33v-5.7c0-.13.05-.24.14-.33.09-.09.2-.14.34-.14h3.13c.13,0,.24.05.33.14.09.09.14.2.14.33,0,.13-.05.25-.14.34-.09.09-.21.14-.33.14h-2.65v1.9h2.08c.13,0,.24.05.33.14.09.09.14.2.14.33s-.05.24-.14.33c-.09.09-.2.14-.33.14h-2.08v1.9h2.65c.13,0,.24.05.33.14Z"/>
        <path class="cls-4" d="M142.4,52.48c.08-.04.15-.06.23-.06.08,0,.16.02.24.06.08.04.14.11.18.19.06.11.07.22.03.35-.04.12-.12.22-.22.29-.24.12-.5.22-.77.29-.27.07-.54.11-.81.11-.45,0-.88-.09-1.29-.26-.4-.17-.76-.41-1.06-.71-.3-.3-.54-.65-.71-1.06-.17-.4-.26-.83-.26-1.29s.09-.88.26-1.28c.17-.4.41-.75.71-1.06.3-.3.65-.54,1.06-.72.4-.17.83-.26,1.29-.26.27,0,.54.04.81.11.27.08.53.17.77.28.11.07.18.17.22.29.04.12.03.24-.03.35-.04.09-.1.15-.18.19-.08.04-.15.06-.24.06-.03,0-.07,0-.11-.02-.04-.01-.08-.03-.11-.04-.16-.09-.34-.16-.54-.21-.2-.05-.39-.08-.59-.08-.32,0-.63.06-.91.18-.29.12-.54.29-.75.51-.21.21-.39.47-.51.75-.13.29-.19.6-.19.92s.06.64.19.92c.13.29.3.54.51.75.21.21.47.38.75.51.29.12.59.18.91.18.2,0,.4-.02.59-.07.19-.04.37-.12.54-.22Z"/>
        <path class="cls-4" d="M149.25,53.71c-.44,0-.85-.09-1.23-.26-.39-.17-.72-.41-1.01-.71-.29-.3-.51-.65-.68-1.06-.17-.4-.25-.83-.25-1.29s.08-.88.25-1.28c.17-.4.39-.75.68-1.06.29-.3.62-.54,1.01-.72.39-.17.8-.26,1.23-.26s.85.09,1.23.26c.39.17.72.41,1.01.72.29.3.51.66.68,1.06.17.4.25.83.25,1.28s-.08.88-.25,1.29c-.17.4-.39.76-.68,1.06-.29.3-.62.54-1.01.71-.39.17-.8.26-1.23.26ZM149.25,48.03c-.31,0-.6.06-.87.18-.27.12-.5.29-.71.51-.2.21-.36.47-.48.75-.12.29-.18.6-.18.92s.06.64.18.92c.12.29.28.54.48.75.2.21.44.38.71.51.27.12.56.18.87.18s.6-.06.87-.18c.27-.12.5-.29.71-.51.2-.21.36-.47.48-.75.12-.29.18-.6.18-.92s-.06-.64-.18-.92c-.12-.29-.28-.54-.48-.75-.2-.21-.44-.38-.71-.51-.27-.12-.56-.18-.87-.18Z"/>
        <path class="cls-4" d="M161.43,53.71c-.13,0-.24-.05-.33-.14-.09-.09-.14-.2-.14-.33v-4.28l-1.71,2.28c-.09.13-.22.19-.38.19s-.28-.06-.38-.19l-1.71-2.28v4.28c0,.13-.05.24-.14.33-.09.09-.21.14-.33.14s-.24-.05-.33-.14c-.09-.09-.14-.2-.14-.33v-5.7c0-.13.05-.24.14-.33.09-.09.21-.14.35-.14.15,0,.27.06.37.19l2.18,2.91,2.19-2.91c.09-.13.21-.19.37-.19.14,0,.25.05.34.14.09.09.13.2.13.33v5.7c0,.13-.05.24-.14.33s-.2.14-.34.14Z"/>
        <path class="cls-4" d="M169.23,47.08c.13,0,.25.05.34.14.09.09.14.2.14.33,0,.13-.05.25-.14.34s-.21.14-.34.14h-2.94v1.9h2.37c.13,0,.24.05.33.14.09.09.14.2.14.33s-.05.24-.14.33c-.09.09-.21.14-.33.14h-2.37v2.39c0,.13-.05.24-.14.33-.09.09-.2.14-.34.14s-.24-.05-.33-.14c-.09-.09-.14-.2-.14-.33v-5.7c0-.13.05-.24.14-.33.09-.09.21-.14.33-.14h3.41Z"/>
        <path class="cls-4" d="M175.87,53.71c-.44,0-.85-.09-1.23-.26-.39-.17-.72-.41-1.01-.71-.29-.3-.51-.65-.68-1.06-.17-.4-.25-.83-.25-1.29s.08-.88.25-1.28c.17-.4.39-.75.68-1.06.29-.3.62-.54,1.01-.72.39-.17.8-.26,1.23-.26s.85.09,1.23.26c.39.17.72.41,1.01.72.29.3.51.66.68,1.06.17.4.25.83.25,1.28s-.08.88-.25,1.29c-.17.4-.39.76-.68,1.06-.29.3-.62.54-1.01.71-.39.17-.8.26-1.23.26ZM175.87,48.03c-.31,0-.6.06-.87.18-.27.12-.5.29-.71.51-.2.21-.36.47-.48.75-.12.29-.18.6-.18.92s.06.64.18.92c.12.29.28.54.48.75.2.21.44.38.71.51.27.12.56.18.87.18s.6-.06.87-.18c.27-.12.5-.29.71-.51.2-.21.36-.47.48-.75.12-.29.18-.6.18-.92s-.06-.64-.18-.92c-.12-.29-.28-.54-.48-.75-.2-.21-.44-.38-.71-.51-.27-.12-.56-.18-.87-.18Z"/>
        <path class="cls-4" d="M186.62,52.99h0c.05.09.08.17.08.26,0,.07-.02.14-.06.21-.04.07-.1.13-.17.18-.06.04-.14.07-.24.07-.18,0-.31-.07-.41-.22l-1.29-2.06h-1.11v1.81c0,.13-.05.24-.14.33-.09.09-.2.14-.34.14s-.24-.05-.33-.14c-.09-.09-.14-.2-.14-.33v-5.7c0-.13.05-.24.14-.33.09-.09.2-.14.33-.14h1.55s.05,0,.12,0c.07,0,.15.02.25.04.1.02.21.05.33.08.12.03.25.08.37.14.35.18.62.44.82.77.2.33.3.71.3,1.14,0,.01,0,.05,0,.12,0,.07-.01.15-.03.25-.02.1-.05.21-.08.33-.04.12-.08.25-.15.37h0c-.09.19-.22.36-.37.51-.15.15-.33.28-.53.39l1.1,1.76ZM183.42,50.49h1.08c.5,0,.86-.19,1.07-.56.04-.08.07-.15.09-.23.02-.08.04-.15.05-.21.01-.06.02-.12.02-.16,0-.04,0-.06,0-.07,0-.52-.2-.88-.6-1.08-.08-.04-.16-.07-.23-.09-.07-.02-.14-.03-.2-.05-.07-.01-.14-.02-.21-.02h-1.08v2.46Z"/>
        <path class="cls-4" d="M193.59,47.08c.13,0,.25.05.34.14.09.09.14.2.14.33,0,.13-.05.25-.14.34-.09.09-.21.14-.34.14h-1.23v5.22c0,.13-.05.24-.14.33-.09.09-.2.14-.34.14-.13,0-.24-.05-.33-.14-.09-.09-.14-.2-.14-.33v-5.22h-1.24c-.13,0-.24-.05-.33-.14-.09-.09-.14-.21-.14-.34s.05-.24.14-.33c.09-.09.21-.14.33-.14h3.41Z"/>
        <path class="cls-4" d="M196.59,54.56c-.06,0-.1,0-.14-.03-.11-.03-.19-.09-.24-.17-.05-.08-.08-.17-.08-.28,0-.05,0-.1.02-.15.04-.14.09-.28.14-.43.05-.15.1-.29.15-.43.04-.08.11-.15.19-.22.08-.07.16-.1.25-.1.04,0,.1,0,.16.02.09.03.17.09.23.18.06.09.09.18.09.28,0,.01,0,.04-.01.08,0,.04-.03.1-.05.18-.03.08-.06.18-.09.3-.04.12-.09.27-.14.45-.05.08-.12.15-.2.22-.09.07-.17.1-.26.1Z"/>
        <path class="cls-4" d="M206.56,53.71c-.13,0-.24-.05-.33-.14-.09-.09-.14-.2-.14-.33v-5.7c0-.13.05-.24.14-.33.09-.09.2-.14.33-.14h1.55s.05,0,.12,0c.07,0,.15.02.25.04.1.02.21.05.33.08.12.03.25.08.37.14.35.18.62.44.82.77.2.33.3.71.3,1.14,0,.01,0,.05,0,.12,0,.07-.01.15-.03.25s-.05.21-.08.33c-.04.12-.08.25-.15.37h0c-.18.35-.44.63-.77.82-.33.19-.72.29-1.15.29h-1.08v1.81c0,.13-.05.24-.14.33-.09.09-.2.14-.34.14ZM207.03,50.49h1.08c.5,0,.86-.19,1.07-.56.04-.08.07-.15.09-.23.02-.08.04-.15.05-.21.01-.06.02-.12.02-.16,0-.04,0-.06,0-.07,0-.52-.2-.88-.6-1.08-.08-.04-.16-.07-.23-.09-.07-.02-.14-.03-.2-.05-.07-.01-.14-.02-.21-.02h-1.08v2.46Z"/>
        <path class="cls-4" d="M216.1,53.71c-.47,0-.88-.11-1.23-.32-.35-.21-.62-.53-.82-.95-.07-.15-.12-.29-.16-.42-.04-.14-.06-.26-.08-.36-.02-.11-.03-.2-.03-.27,0-.07,0-.12,0-.14v-3.7c0-.13.05-.24.14-.33.09-.09.21-.14.33-.14s.24.05.33.14c.09.09.14.2.14.33v3.7s0,.08.01.17c0,.09.03.18.06.29s.08.23.14.36c.06.13.14.24.25.35.1.1.23.19.38.26.15.07.33.1.54.1.3,0,.54-.07.72-.2.18-.14.32-.29.41-.46.09-.17.16-.34.19-.51.03-.17.05-.28.05-.34v-3.7c0-.13.05-.24.14-.33.09-.09.21-.14.33-.14s.24.05.33.14c.09.09.14.2.14.33v3.7s0,.06,0,.14c0,.07-.01.16-.03.27-.02.11-.04.23-.08.36-.04.14-.09.28-.15.42-.2.42-.47.73-.81.95-.35.21-.76.32-1.23.32Z"/>
        <path class="cls-4" d="M226.02,52.99h0c.05.09.08.17.08.26,0,.07-.02.14-.06.21-.04.07-.1.13-.17.18-.06.04-.14.07-.24.07-.18,0-.31-.07-.41-.22l-1.29-2.06h-1.11v1.81c0,.13-.05.24-.14.33-.09.09-.2.14-.34.14s-.24-.05-.33-.14c-.09-.09-.14-.2-.14-.33v-5.7c0-.13.05-.24.14-.33.09-.09.2-.14.33-.14h1.55s.05,0,.12,0c.07,0,.15.02.25.04.1.02.21.05.33.08.12.03.25.08.37.14.35.18.62.44.82.77.2.33.3.71.3,1.14,0,.01,0,.05,0,.12,0,.07-.01.15-.03.25-.02.1-.05.21-.08.33-.04.12-.08.25-.15.37h0c-.09.19-.22.36-.37.51-.15.15-.33.28-.53.39l1.1,1.76ZM222.82,50.49h1.08c.5,0,.86-.19,1.07-.56.04-.08.07-.15.09-.23.02-.08.04-.15.05-.21.01-.06.02-.12.02-.16,0-.04,0-.06,0-.07,0-.52-.2-.88-.6-1.08-.08-.04-.16-.07-.23-.09-.07-.02-.14-.03-.2-.05-.07-.01-.14-.02-.21-.02h-1.08v2.46Z"/>
        <path class="cls-4" d="M233.51,52.9c.09.09.14.21.14.34s-.05.24-.14.33c-.09.09-.21.14-.33.14h-3.13c-.13,0-.24-.05-.34-.14-.09-.09-.14-.2-.14-.33v-5.7c0-.13.05-.24.14-.33.09-.09.2-.14.34-.14h3.13c.13,0,.24.05.33.14.09.09.14.2.14.33,0,.13-.05.25-.14.34-.09.09-.21.14-.33.14h-2.65v1.9h2.08c.13,0,.24.05.33.14.09.09.14.2.14.33s-.05.24-.14.33c-.09.09-.2.14-.33.14h-2.08v1.9h2.65c.13,0,.24.05.33.14Z"/>
        <path class="cls-4" d="M242.81,53.71c-.13,0-.25-.05-.34-.14-.09-.09-.14-.2-.14-.33v-5.7c0-.13.05-.24.14-.33.09-.09.21-.14.34-.14s.24.05.33.14c.09.09.14.2.14.33v5.22h2.08c.13,0,.25.05.34.14.09.09.14.21.14.34s-.05.24-.14.33c-.09.09-.21.14-.34.14h-2.55Z"/>
        <path class="cls-4" d="M251.73,53.71c-.44,0-.85-.09-1.23-.26-.39-.17-.72-.41-1.01-.71-.29-.3-.51-.65-.68-1.06-.17-.4-.25-.83-.25-1.29s.08-.88.25-1.28c.17-.4.39-.75.68-1.06.29-.3.62-.54,1.01-.72.39-.17.8-.26,1.23-.26s.85.09,1.23.26c.39.17.72.41,1.01.72.29.3.51.66.68,1.06.17.4.25.83.25,1.28s-.08.88-.25,1.29c-.17.4-.39.76-.68,1.06-.29.3-.62.54-1.01.71-.39.17-.8.26-1.23.26ZM251.73,48.03c-.31,0-.6.06-.87.18-.27.12-.5.29-.71.51-.2.21-.36.47-.48.75-.12.29-.18.6-.18.92s.06.64.18.92c.12.29.28.54.48.75.2.21.44.38.71.51s.56.18.87.18.6-.06.87-.18c.27-.12.5-.29.71-.51.2-.21.36-.47.48-.75.12-.29.18-.6.18-.92s-.06-.64-.18-.92c-.12-.29-.28-.54-.48-.75-.2-.21-.44-.38-.71-.51-.27-.12-.56-.18-.87-.18Z"/>
        <path class="cls-4" d="M260.4,53.71c-.09,0-.18-.03-.26-.09-.08-.06-.14-.13-.19-.21l-2.27-5.68s-.03-.1-.03-.17c0-.12.04-.23.13-.33.09-.1.2-.15.34-.15.09,0,.18.03.26.08.08.05.14.13.17.22l1.85,4.59,1.83-4.59c.04-.09.1-.17.18-.22.08-.05.17-.08.27-.08.14,0,.26.05.34.15.08.1.12.2.12.32,0,.08,0,.14-.03.18-.36.92-.74,1.86-1.14,2.84-.4.98-.78,1.93-1.14,2.84-.04.08-.11.15-.18.21-.08.06-.16.09-.25.09Z"/>
        <path class="cls-4" d="M270.53,52.9c.09.09.14.21.14.34s-.05.24-.14.33c-.09.09-.21.14-.33.14h-3.13c-.13,0-.24-.05-.34-.14-.09-.09-.14-.2-.14-.33v-5.7c0-.13.05-.24.14-.33.09-.09.2-.14.34-.14h3.13c.13,0,.24.05.33.14.09.09.14.2.14.33,0,.13-.05.25-.14.34-.09.09-.21.14-.33.14h-2.65v1.9h2.08c.13,0,.24.05.33.14.09.09.14.2.14.33s-.05.24-.14.33c-.09.09-.2.14-.33.14h-2.08v1.9h2.65c.13,0,.24.05.33.14Z"/>
      </g>
      <g>
        <circle class="cls-4" cx="95.95" cy="50.82" r=".86"/>
        <circle class="cls-4" cx="276.45" cy="50.82" r=".86"/>
      </g>
    </g>
  </g>
</svg>